<svg width="306" height="308" viewBox="0 0 306 308" fill="none" xmlns="http://www.w3.org/2000/svg">
<g clip-path="url(#clip0_1611_531)">
<path d="M141.188 173.78C140.978 174.14 140.778 174.32 140.518 174.46C140.268 174.6 139.948 174.69 139.618 174.69C139.288 174.69 138.968 174.61 138.718 174.46C138.468 174.31 138.258 174.14 138.048 173.78L130.388 160.29C130.328 160.21 130.268 160.14 130.218 160.05L126.848 154.11L119.878 141.84L116.018 135.05C115.968 134.96 115.938 134.87 115.898 134.78L98.2576 103.72C96.5876 100.77 94.1876 98.4604 91.4676 96.9504C88.7476 95.4304 85.7376 94.6904 82.7376 94.6904C79.7576 94.6904 76.7576 95.4304 74.0576 96.9204C71.3576 98.4104 68.9576 100.7 67.2776 103.61L49.0176 135.25L55.9576 147.47L77.7776 109.67C78.3676 108.66 79.0876 107.99 79.9376 107.52C80.7776 107.05 81.7576 106.81 82.7376 106.81C83.7276 106.81 84.7176 107.06 85.5576 107.53C86.4076 108.01 87.1276 108.68 87.7176 109.71L112.928 154.08L119.898 166.35L127.518 179.77C128.808 182.06 130.698 183.87 132.818 185.05C134.938 186.23 137.288 186.81 139.628 186.81C141.968 186.81 144.308 186.23 146.438 185.05C148.558 183.87 150.438 182.06 151.738 179.77L155.848 172.53L148.878 160.26L141.198 173.78H141.188Z" fill="#64C0CA"/>
<path d="M27.4777 172.53C26.8677 173.42 26.1777 174.14 25.4077 174.62C24.8977 174.94 24.3477 175.15 23.7777 175.24C22.6377 175.41 21.3877 175.06 20.0677 174.02C19.1477 173.29 17.7977 174.07 18.0077 175.23C18.1677 176.13 18.3477 177.05 18.5577 177.99C19.4177 181.5 22.0777 187.02 27.2377 186.62C28.8677 186.37 30.4677 185.85 31.9677 185.02C34.1177 183.84 36.0177 182.02 37.3377 179.72L41.8677 171.87L34.9277 159.65L27.4877 172.54L27.4777 172.53Z" fill="#64C0CA"/>
<path d="M230.858 82.6306C228.808 79.0206 225.888 76.2106 222.578 74.3606C219.268 72.5106 215.588 71.6006 211.918 71.6006C208.248 71.6006 204.568 72.5106 201.258 74.3606C197.948 76.2006 195.028 79.0106 192.978 82.6306L162.838 135.671L169.808 147.941L203.518 88.6106C204.488 86.9206 205.728 85.7506 207.168 84.9406C208.608 84.1406 210.258 83.7206 211.918 83.7206C213.578 83.7206 215.228 84.1406 216.668 84.9406C218.108 85.7506 219.358 86.9206 220.318 88.6106L233.458 110.591C231.958 107.951 232.878 104.591 235.528 103.091C238.178 101.591 241.528 102.511 243.028 105.161L230.868 82.6206L230.858 82.6306Z" fill="#64C0CA"/>
<path d="M45.3779 165.77L45.3879 165.75H45.3979" fill="#1F88AE"/>
<path d="M159.308 141.881L166.288 154.151L166.328 154.081L159.348 141.811L159.308 141.881Z" fill="#1F88AE"/>
<path d="M260.618 45.7406C232.908 18.0306 194.568 0.870605 152.288 0.870605C115.248 0.870605 81.2177 14.0406 54.7377 35.9406C28.2377 57.8406 9.23772 88.4806 2.13772 123.471V123.551L1.53772 127.731C1.29772 129.431 3.51772 130.241 4.46772 128.811C5.94772 126.561 7.52772 124.541 9.16772 122.761C9.32772 122.591 9.48772 122.421 9.64772 122.251C14.0077 117.691 17.3577 112.281 19.4877 106.341C28.1277 82.2906 43.1277 61.2606 62.4577 45.2806C86.8677 25.1006 118.138 12.9906 152.288 12.9906C191.268 12.9906 226.498 28.7706 252.048 54.3106C277.588 79.8606 293.368 115.091 293.368 154.071C293.368 193.051 277.588 228.281 252.048 253.831C226.458 279.411 191.168 295.191 152.118 295.151L151.328 295.111C151.198 295.101 151.068 295.091 150.928 295.091C118.618 294.801 87.1377 283.301 62.2877 262.701C37.7577 242.371 20.6677 214.111 14.1677 183.121C10.9677 167.841 12.8077 151.821 19.3677 138.001C19.8877 136.901 20.2877 136.141 20.4577 135.821C21.8077 133.851 23.8277 133.691 24.6277 133.701C25.4577 133.721 27.5377 134.011 28.7777 136.191L45.4477 165.661L45.4077 165.731L65.1477 200.471L67.2577 204.211C67.3177 204.311 67.3777 204.411 67.4477 204.511C69.1077 207.351 71.4577 209.581 74.0977 211.051C76.8177 212.571 79.8277 213.311 82.8277 213.311C85.8277 213.311 88.8377 212.571 91.5577 211.051C94.2777 209.541 96.6777 207.231 98.3477 204.281L115.928 173.341C116.208 172.851 116.208 172.251 115.928 171.761L110.788 162.721C110.178 161.641 108.618 161.641 108.008 162.721L87.7977 198.291C87.2077 199.321 86.4877 199.991 85.6377 200.471C84.7977 200.941 83.8077 201.191 82.8177 201.191C81.8277 201.191 80.8377 200.941 79.9977 200.471C79.1477 199.991 78.4277 199.321 77.8377 198.291L75.5977 194.351L39.3277 130.221C36.3577 124.971 30.9777 121.741 24.9477 121.581C18.8977 121.431 13.3777 124.361 10.1277 129.451C10.0577 129.551 9.99772 129.661 9.93772 129.771C9.87772 129.891 9.28772 130.951 8.40772 132.801C0.727721 149.001 -1.44228 167.751 2.29772 185.611C8.77772 216.511 24.9477 244.901 48.1577 266.431L48.1377 266.451C75.4477 291.781 112.088 307.291 152.278 307.281C194.568 307.281 232.908 290.121 260.608 262.411C288.318 234.701 305.488 196.361 305.478 154.081C305.478 111.791 288.318 73.4506 260.608 45.7506L260.618 45.7406Z" fill="white"/>
<path d="M155.508 135.041C155.508 135.041 155.498 135.011 155.488 135.001L151.728 128.381C150.438 126.091 148.548 124.281 146.428 123.101C144.308 121.911 141.958 121.341 139.618 121.341C137.278 121.341 134.938 121.921 132.808 123.101C130.688 124.281 128.808 126.091 127.508 128.381L123.358 135.691L130.328 147.961L138.048 134.361C138.258 134.001 138.458 133.821 138.718 133.671C138.968 133.531 139.288 133.441 139.618 133.441C139.948 133.441 140.268 133.521 140.518 133.671C140.768 133.821 140.978 133.991 141.188 134.351L148.088 146.501C148.148 146.661 148.218 146.811 148.288 146.961C148.348 147.081 148.398 147.201 148.468 147.321L152.338 154.131L159.308 166.401L162.648 172.291L162.668 172.321C162.818 172.591 162.998 172.831 163.178 173.071L192.968 225.511C195.018 229.121 197.938 231.931 201.248 233.781C204.558 235.631 208.238 236.541 211.908 236.541C215.578 236.541 219.258 235.631 222.568 233.781C225.878 231.941 228.798 229.131 230.848 225.511L244.508 200.301L255.608 180.821H242.948L234.948 194.851L220.308 219.511C219.338 221.201 218.098 222.371 216.658 223.181C215.218 223.981 213.568 224.401 211.908 224.401C210.248 224.401 208.598 223.981 207.158 223.181C205.718 222.371 204.468 221.201 203.508 219.511L169.728 160.061C169.728 160.061 169.708 160.041 169.698 160.021L166.308 154.061L166.268 154.131L159.298 141.861L159.338 141.791L155.498 135.031L155.508 135.041Z" fill="white"/>
<path d="M119.898 166.351L112.918 154.071L112.878 154.151L119.858 166.421L119.898 166.351Z" fill="white"/>
<path d="M233.448 110.53L253.688 146.15C255.078 148.6 255.768 151.32 255.778 154.04C255.778 156.77 255.078 159.5 253.678 161.95L234.958 194.79C233.458 197.43 234.378 200.79 237.008 202.29C239.638 203.79 243.008 202.87 244.508 200.24L263.228 167.4C265.588 163.26 266.768 158.65 266.768 154.04C266.768 149.45 265.598 144.84 263.248 140.71L243.008 105.09C241.508 102.45 238.148 101.52 235.508 103.02C232.868 104.52 231.938 107.88 233.438 110.52L233.448 110.53Z" fill="url(#paint0_linear_1611_531)"/>
</g>
<defs>
<linearGradient id="paint0_linear_1611_531" x1="249.909" y1="108.03" x2="249.909" y2="196.75" gradientUnits="userSpaceOnUse">
<stop stop-color="#64C0CA"/>
<stop offset="1" stop-color="white"/>
</linearGradient>
<clipPath id="clip0_1611_531">
<rect width="304.98" height="306.41" fill="white" transform="translate(0.507812 0.870605)"/>
</clipPath>
</defs>
</svg>
