<svg width="1150" height="307" viewBox="0 0 1150 307" fill="none" xmlns="http://www.w3.org/2000/svg">
<path d="M1091.36 234.734C1081.2 234.734 1071.86 232.492 1063.34 228.008C1054.82 223.375 1048.02 216.724 1042.94 208.055C1037.86 199.237 1035.32 188.625 1035.32 176.219C1035.32 164.412 1037.78 154.174 1042.71 145.505C1047.8 136.836 1054.6 130.11 1063.12 125.328C1071.78 120.545 1081.5 118.153 1092.26 118.153C1102.57 118.153 1111.99 120.395 1120.51 124.879C1129.18 129.363 1136.13 135.939 1141.36 144.608C1146.59 153.277 1149.21 163.814 1149.21 176.219C1149.21 187.578 1146.74 197.667 1141.81 206.485C1136.88 215.304 1130 222.254 1121.18 227.335C1112.51 232.268 1102.57 234.734 1091.36 234.734ZM1091.36 218.368C1098.69 218.368 1105.26 216.649 1111.09 213.211C1116.92 209.624 1121.56 204.692 1124.99 198.414C1128.43 192.137 1130.15 184.739 1130.15 176.219C1130.15 168.148 1128.66 160.974 1125.67 154.697C1122.68 148.419 1118.34 143.487 1112.66 139.9C1106.98 136.313 1100.11 134.519 1092.04 134.519C1083.82 134.519 1076.87 136.388 1071.19 140.124C1065.66 143.861 1061.47 148.868 1058.63 155.145C1055.79 161.423 1054.37 168.447 1054.37 176.219C1054.37 186.084 1056.17 194.155 1059.75 200.432C1063.34 206.56 1067.97 211.119 1073.65 214.108C1079.33 216.948 1085.24 218.368 1091.36 218.368Z" fill="white"/>
<path d="M1006.79 96.1821C1003.05 96.1821 999.91 94.9864 997.369 92.595C994.978 90.0541 993.782 86.9154 993.782 83.1788C993.782 79.5918 994.978 76.6025 997.369 74.2111C999.91 71.8197 1003.05 70.624 1006.79 70.624C1010.37 70.624 1013.44 71.8197 1015.98 74.2111C1018.52 76.6025 1019.79 79.5918 1019.79 83.1788C1019.79 86.9154 1018.52 90.0541 1015.98 92.595C1013.44 94.9864 1010.37 96.1821 1006.79 96.1821ZM997.369 232.043V120.843H1016.2V232.043H997.369Z" fill="white"/>
<path d="M870.574 232.043V75.1079H924.605C939.402 75.1079 951.06 78.695 959.579 85.8692C968.248 92.8939 972.582 102.086 972.582 113.445C972.582 122.114 970.191 129.437 965.408 135.416C960.775 141.394 955.095 145.43 948.369 147.522C955.245 149.615 960.999 152.604 965.632 156.49C970.265 160.376 973.778 164.935 976.169 170.166C978.561 175.248 979.756 181.002 979.756 187.429C979.756 196.098 977.963 203.795 974.376 210.521C970.789 217.246 965.259 222.552 957.785 226.438C950.462 230.175 941.12 232.043 929.761 232.043H870.574ZM889.406 216.35H923.932C935.441 216.35 944.409 213.958 950.835 209.175C957.412 204.393 960.7 196.77 960.7 186.308C960.7 175.696 957.188 167.999 950.163 163.216C943.138 158.433 934.245 156.042 923.484 156.042H889.406V216.35ZM889.406 141.021H923.26C932.975 141.021 940.448 138.779 945.679 134.295C950.91 129.662 953.526 123.534 953.526 115.911C953.526 107.99 950.91 101.862 945.679 97.5272C940.448 93.0434 932.751 90.8014 922.587 90.8014H889.406V141.021Z" fill="white"/>
<path d="M789.942 234.734C781.124 234.734 773.202 233.239 766.177 230.25C759.153 227.111 753.473 222.777 749.139 217.247C744.954 211.567 742.338 204.916 741.292 197.294H760.573C761.768 203.123 764.832 208.204 769.765 212.539C774.846 216.724 781.647 218.816 790.166 218.816C798.088 218.816 803.917 217.172 807.653 213.884C811.39 210.446 813.258 206.411 813.258 201.777C813.258 197.294 812.137 193.856 809.895 191.464C807.803 189.073 804.664 187.28 800.479 186.084C796.444 184.739 791.437 183.468 785.458 182.273C779.181 180.927 773.053 179.134 767.074 176.892C761.096 174.501 756.163 171.287 752.277 167.252C748.391 163.216 746.448 157.91 746.448 151.334C746.448 144.758 748.093 139.003 751.381 134.071C754.669 129.139 759.302 125.253 765.281 122.413C771.409 119.573 778.583 118.153 786.803 118.153C798.611 118.153 808.251 121.143 815.724 127.121C823.347 132.95 827.756 141.32 828.952 152.231H810.344C809.596 146.551 807.13 142.142 802.945 139.003C798.91 135.715 793.454 134.071 786.579 134.071C779.853 134.071 774.622 135.491 770.885 138.331C767.298 141.17 765.505 144.907 765.505 149.54C765.505 152.53 766.551 155.07 768.644 157.163C770.736 159.255 773.725 161.049 777.611 162.544C781.647 164.038 786.355 165.383 791.735 166.579C799.209 168.074 806.009 169.942 812.137 172.184C818.265 174.426 823.197 177.714 826.934 182.048C830.67 186.233 832.539 192.287 832.539 200.208C832.688 206.784 830.969 212.688 827.382 217.919C823.945 223.15 819.012 227.261 812.585 230.25C806.308 233.239 798.76 234.734 789.942 234.734Z" fill="white"/>
<path d="M668.818 234.733C660.149 234.733 652.527 233.015 645.95 229.577C639.524 225.99 634.517 220.609 630.929 213.435C627.342 206.111 625.549 196.919 625.549 185.859V120.843H644.381V183.842C644.381 195.35 646.772 204.019 651.555 209.848C656.338 215.677 663.512 218.591 673.078 218.591C682.643 218.591 690.565 215.154 696.842 208.279C703.269 201.254 706.483 191.315 706.483 178.461V120.843H725.315V232.043H708.276L707.155 212.09C703.568 219.115 698.412 224.645 691.686 228.68C684.96 232.716 677.337 234.733 668.818 234.733Z" fill="white"/>
<path d="M587.284 232.043V75.1079H606.116V232.043H587.284Z" fill="white"/>
<path d="M505.164 234.734C497.542 234.734 490.592 233.463 484.314 230.922C478.037 228.382 473.03 224.57 469.293 219.489C465.706 214.257 463.913 207.905 463.913 200.432C463.913 191.763 466.155 184.888 470.638 179.806C475.122 174.575 481.026 170.839 488.35 168.597C495.823 166.205 503.819 165.01 512.338 165.01H542.38C542.38 157.238 541.035 151.11 538.345 146.626C535.804 142.142 532.441 138.929 528.256 136.986C524.071 135.043 519.438 134.071 514.356 134.071C507.032 134.071 500.68 135.865 495.3 139.452C490.068 142.889 486.78 148.27 485.435 155.594H466.155C466.902 147.523 469.592 140.722 474.225 135.192C478.859 129.662 484.688 125.477 491.713 122.637C498.887 119.648 506.435 118.153 514.356 118.153C525.566 118.153 534.608 120.246 541.483 124.431C548.359 128.466 553.366 133.922 556.504 140.797C559.643 147.672 561.212 155.295 561.212 163.665V197.742C561.212 203.272 561.885 207.457 563.23 210.297C564.575 213.137 568.013 214.855 573.543 215.453V232.043C568.611 232.043 564.127 231.446 560.091 230.25C556.056 228.905 552.618 226.812 549.779 223.973C547.088 220.983 545.145 217.097 543.95 212.314C540.213 218.592 535.057 223.898 528.48 228.232C522.053 232.567 514.281 234.734 505.164 234.734ZM508.079 218.816C515.552 218.816 521.829 216.948 526.911 213.211C531.993 209.325 535.804 204.393 538.345 198.414C541.035 192.436 542.38 186.233 542.38 179.806V179.582H513.908C508.676 179.582 503.744 180.18 499.111 181.376C494.478 182.422 490.741 184.44 487.901 187.429C485.061 190.269 483.642 194.304 483.642 199.535C483.642 206.261 486.033 211.194 490.816 214.332C495.599 217.321 501.353 218.816 508.079 218.816Z" fill="white"/>
<path d="M406.435 232.043V90.5772H359.579V75.1079H472.124V90.5772H425.267V232.043H406.435Z" fill="white"/>
<g clip-path="url(#clip0_1611_497)">
<path d="M141.469 172.953C141.259 173.313 141.059 173.493 140.799 173.633C140.549 173.773 140.229 173.863 139.899 173.863C139.569 173.863 139.249 173.783 138.999 173.633C138.749 173.483 138.539 173.313 138.329 172.953L130.669 159.463C130.609 159.383 130.549 159.313 130.499 159.223L127.129 153.283L120.159 141.013L116.299 134.223C116.249 134.133 116.219 134.043 116.179 133.953L98.5388 102.893C96.8688 99.9428 94.4688 97.6328 91.7488 96.1228C89.0288 94.6028 86.0188 93.8628 83.0188 93.8628C80.0388 93.8628 77.0388 94.6028 74.3388 96.0928C71.6388 97.5828 69.2388 99.8728 67.5588 102.783L49.2988 134.423L56.2388 146.643L78.0588 108.843C78.6488 107.833 79.3688 107.163 80.2188 106.693C81.0588 106.223 82.0388 105.983 83.0188 105.983C84.0088 105.983 84.9988 106.233 85.8388 106.703C86.6888 107.183 87.4088 107.853 87.9988 108.883L113.209 153.253L120.179 165.523L127.799 178.943C129.089 181.233 130.979 183.043 133.099 184.223C135.219 185.403 137.569 185.983 139.909 185.983C142.249 185.983 144.589 185.403 146.719 184.223C148.839 183.043 150.719 181.233 152.019 178.943L156.129 171.703L149.159 159.433L141.479 172.953H141.469Z" fill="#64C0CA"/>
<path d="M27.7589 171.703C27.1489 172.593 26.4589 173.313 25.6889 173.793C25.1789 174.113 24.6289 174.323 24.0589 174.413C22.9189 174.583 21.6689 174.233 20.3489 173.193C19.4289 172.463 18.0789 173.243 18.2889 174.403C18.4489 175.303 18.6289 176.223 18.8389 177.163C19.6989 180.673 22.3589 186.193 27.5189 185.793C29.1489 185.543 30.7489 185.023 32.2489 184.193C34.3989 183.013 36.2989 181.193 37.6189 178.893L42.1489 171.043L35.2089 158.823L27.7689 171.713L27.7589 171.703Z" fill="#64C0CA"/>
<path d="M231.139 81.8029C229.089 78.1929 226.169 75.3829 222.859 73.5329C219.549 71.6829 215.869 70.7729 212.199 70.7729C208.529 70.7729 204.849 71.6829 201.539 73.5329C198.229 75.3729 195.309 78.1829 193.259 81.8029L163.119 134.843L170.089 147.113L203.799 87.7829C204.769 86.0929 206.009 84.9229 207.449 84.1129C208.889 83.3129 210.539 82.8929 212.199 82.8929C213.859 82.8929 215.509 83.3129 216.949 84.1129C218.389 84.9229 219.639 86.0929 220.599 87.7829L233.739 109.763C232.239 107.123 233.159 103.763 235.809 102.263C238.459 100.763 241.809 101.683 243.309 104.333L231.149 81.7929L231.139 81.8029Z" fill="#64C0CA"/>
<path d="M45.6592 164.943L45.6692 164.923H45.6792" fill="#1F88AE"/>
<path d="M159.589 141.053L166.569 153.323L166.609 153.253L159.629 140.983L159.589 141.053Z" fill="#1F88AE"/>
<path d="M260.899 44.913C233.189 17.203 194.849 0.0429688 152.569 0.0429688C115.529 0.0429688 81.499 13.213 55.019 35.113C28.519 57.013 9.51897 87.653 2.41897 122.643V122.723L1.81897 126.903C1.57897 128.603 3.79897 129.413 4.74897 127.983C6.22897 125.733 7.80897 123.713 9.44897 121.933C9.60897 121.763 9.76897 121.593 9.92897 121.423C14.289 116.863 17.639 111.453 19.769 105.513C28.409 81.463 43.409 60.433 62.739 44.453C87.149 24.273 118.419 12.163 152.569 12.163C191.549 12.163 226.779 27.943 252.329 53.483C277.869 79.033 293.649 114.263 293.649 153.243C293.649 192.223 277.869 227.453 252.329 253.003C226.739 278.583 191.449 294.363 152.399 294.323L151.609 294.283C151.479 294.273 151.349 294.263 151.209 294.263C118.899 293.973 87.419 282.473 62.569 261.873C38.039 241.543 20.949 213.283 14.449 182.293C11.249 167.013 13.089 150.993 19.649 137.173C20.169 136.073 20.569 135.313 20.739 134.993C22.089 133.023 24.109 132.863 24.909 132.873C25.739 132.893 27.819 133.183 29.059 135.363L45.729 164.833L45.689 164.903L65.429 199.643L67.539 203.383C67.599 203.483 67.659 203.583 67.729 203.683C69.389 206.523 71.739 208.753 74.379 210.223C77.099 211.743 80.109 212.483 83.109 212.483C86.109 212.483 89.119 211.743 91.839 210.223C94.559 208.713 96.959 206.403 98.629 203.453L116.209 172.513C116.489 172.023 116.489 171.423 116.209 170.933L111.069 161.893C110.459 160.813 108.899 160.813 108.289 161.893L88.079 197.463C87.489 198.493 86.769 199.163 85.919 199.643C85.079 200.113 84.089 200.363 83.099 200.363C82.109 200.363 81.119 200.113 80.279 199.643C79.429 199.163 78.709 198.493 78.119 197.463L75.879 193.523L39.609 129.393C36.639 124.143 31.259 120.913 25.229 120.753C19.179 120.603 13.659 123.533 10.409 128.623C10.339 128.723 10.279 128.833 10.219 128.943C10.159 129.063 9.56897 130.123 8.68897 131.973C1.00897 148.173 -1.16103 166.923 2.57897 184.783C9.05897 215.683 25.229 244.073 48.439 265.603L48.419 265.623C75.729 290.953 112.369 306.463 152.559 306.453C194.849 306.453 233.189 289.293 260.889 261.583C288.599 233.873 305.769 195.533 305.759 153.253C305.759 110.963 288.599 72.623 260.889 44.923L260.899 44.913Z" fill="white"/>
<path d="M155.789 134.213C155.789 134.213 155.779 134.183 155.769 134.173L152.009 127.553C150.719 125.263 148.829 123.453 146.709 122.273C144.589 121.083 142.239 120.513 139.899 120.513C137.559 120.513 135.219 121.093 133.089 122.273C130.969 123.453 129.089 125.263 127.789 127.553L123.639 134.863L130.609 147.133L138.329 133.533C138.539 133.173 138.739 132.993 138.999 132.843C139.249 132.703 139.569 132.613 139.899 132.613C140.229 132.613 140.549 132.693 140.799 132.843C141.049 132.993 141.259 133.163 141.469 133.523L148.369 145.673C148.429 145.833 148.499 145.983 148.569 146.133C148.629 146.253 148.679 146.373 148.749 146.493L152.619 153.303L159.589 165.573L162.929 171.463L162.949 171.493C163.099 171.763 163.279 172.003 163.459 172.243L193.249 224.683C195.299 228.293 198.219 231.103 201.529 232.953C204.839 234.803 208.519 235.713 212.189 235.713C215.859 235.713 219.539 234.803 222.849 232.953C226.159 231.113 229.079 228.303 231.129 224.683L244.789 199.473L255.889 179.993H243.229L235.229 194.023L220.589 218.683C219.619 220.373 218.379 221.543 216.939 222.353C215.499 223.153 213.849 223.573 212.189 223.573C210.529 223.573 208.879 223.153 207.439 222.353C205.999 221.543 204.749 220.373 203.789 218.683L170.009 159.233C170.009 159.233 169.989 159.213 169.979 159.193L166.589 153.233L166.549 153.303L159.579 141.033L159.619 140.963L155.779 134.203L155.789 134.213Z" fill="white"/>
<path d="M120.179 165.523L113.199 153.243L113.159 153.323L120.139 165.593L120.179 165.523Z" fill="white"/>
<path d="M233.729 109.703L253.969 145.323C255.359 147.773 256.049 150.493 256.059 153.213C256.059 155.943 255.359 158.673 253.959 161.123L235.239 193.963C233.739 196.603 234.659 199.963 237.289 201.463C239.919 202.963 243.289 202.043 244.789 199.413L263.509 166.573C265.869 162.433 267.049 157.823 267.049 153.213C267.049 148.623 265.879 144.013 263.529 139.883L243.289 104.263C241.789 101.623 238.429 100.693 235.789 102.193C233.149 103.693 232.219 107.053 233.719 109.693L233.729 109.703Z" fill="url(#paint0_linear_1611_497)"/>
</g>
<defs>
<linearGradient id="paint0_linear_1611_497" x1="250.19" y1="107.202" x2="250.19" y2="195.922" gradientUnits="userSpaceOnUse">
<stop stop-color="#64C0CA"/>
<stop offset="1" stop-color="white"/>
</linearGradient>
<clipPath id="clip0_1611_497">
<rect width="304.98" height="306.41" fill="white" transform="translate(0.789062 0.0429688)"/>
</clipPath>
</defs>
</svg>
