<?xml version="1.0" encoding="UTF-8" standalone="no"?>
<!DOCTYPE svg PUBLIC "-//W3C//DTD SVG 1.1//EN" "http://www.w3.org/Graphics/SVG/1.1/DTD/svg11.dtd">
<svg width="100%" height="100%" viewBox="0 0 140 40" version="1.1" xmlns="http://www.w3.org/2000/svg" xmlns:xlink="http://www.w3.org/1999/xlink" xml:space="preserve" xmlns:serif="http://www.serif.com/" style="fill-rule:evenodd;clip-rule:evenodd;stroke-linecap:round;stroke-linejoin:round;stroke-miterlimit:1.5;">
    <g transform="matrix(1,0,0,1,-11.3562,9.14008)">
        <g transform="matrix(18,0,0,18,14.9408,8.21069)">
            <path d="M0.419,-0.77L0.517,-0.758L0.517,-0L0.431,-0L0.423,-0.069C0.384,-0.015 0.333,0.013 0.27,0.013C0.223,0.013 0.185,0.001 0.155,-0.023C0.124,-0.047 0.102,-0.08 0.087,-0.122C0.072,-0.164 0.065,-0.214 0.065,-0.27C0.065,-0.324 0.074,-0.373 0.091,-0.416C0.107,-0.458 0.132,-0.492 0.163,-0.516C0.195,-0.541 0.233,-0.553 0.278,-0.553C0.336,-0.553 0.383,-0.533 0.419,-0.492L0.419,-0.77ZM0.304,-0.476C0.261,-0.476 0.228,-0.459 0.205,-0.425C0.182,-0.391 0.171,-0.339 0.171,-0.27C0.171,-0.2 0.181,-0.149 0.202,-0.115C0.223,-0.082 0.254,-0.065 0.293,-0.065C0.322,-0.065 0.346,-0.073 0.367,-0.089C0.388,-0.106 0.405,-0.125 0.419,-0.147L0.419,-0.411C0.405,-0.431 0.388,-0.447 0.368,-0.459C0.349,-0.47 0.327,-0.476 0.304,-0.476Z" style="fill:rgb(0,20,37);fill-rule:nonzero;"/>
        </g>
        <g transform="matrix(18,0,0,18,26.0177,8.21069)">
            <path d="M0.496,-0.124C0.496,-0.103 0.5,-0.087 0.507,-0.077C0.514,-0.067 0.524,-0.06 0.539,-0.055L0.516,0.012C0.491,0.009 0.47,0.002 0.452,-0.01C0.433,-0.021 0.42,-0.039 0.411,-0.063C0.392,-0.038 0.367,-0.019 0.337,-0.006C0.308,0.006 0.275,0.013 0.241,0.013C0.186,0.013 0.143,-0.003 0.112,-0.033C0.08,-0.064 0.065,-0.105 0.065,-0.155C0.065,-0.211 0.087,-0.254 0.131,-0.284C0.174,-0.315 0.238,-0.33 0.32,-0.33L0.398,-0.33L0.398,-0.371C0.398,-0.408 0.387,-0.435 0.365,-0.45C0.343,-0.466 0.313,-0.474 0.273,-0.474C0.255,-0.474 0.234,-0.472 0.209,-0.467C0.185,-0.463 0.159,-0.456 0.131,-0.446L0.106,-0.518C0.139,-0.531 0.171,-0.54 0.202,-0.545C0.233,-0.551 0.262,-0.553 0.288,-0.553C0.358,-0.553 0.41,-0.537 0.444,-0.506C0.479,-0.474 0.496,-0.431 0.496,-0.376L0.496,-0.124ZM0.268,-0.061C0.293,-0.061 0.317,-0.068 0.341,-0.081C0.364,-0.094 0.383,-0.112 0.398,-0.135L0.398,-0.266L0.327,-0.266C0.27,-0.266 0.229,-0.256 0.205,-0.237C0.181,-0.217 0.169,-0.191 0.169,-0.157C0.169,-0.093 0.202,-0.061 0.268,-0.061Z" style="fill:rgb(0,20,37);fill-rule:nonzero;"/>
        </g>
        <g transform="matrix(18,0,0,18,37.0946,8.21069)">
            <path d="M0.537,-0.028C0.518,-0.015 0.495,-0.006 0.468,0.002C0.441,0.009 0.414,0.013 0.387,0.013C0.326,0.013 0.28,-0.003 0.248,-0.034C0.216,-0.066 0.201,-0.107 0.201,-0.157L0.201,-0.467L0.078,-0.467L0.078,-0.541L0.201,-0.541L0.201,-0.663L0.299,-0.674L0.299,-0.541L0.484,-0.541L0.472,-0.467L0.299,-0.467L0.299,-0.158C0.299,-0.128 0.307,-0.106 0.322,-0.091C0.337,-0.076 0.362,-0.068 0.398,-0.068C0.418,-0.068 0.436,-0.071 0.453,-0.075C0.47,-0.08 0.486,-0.086 0.5,-0.094L0.537,-0.028Z" style="fill:rgb(0,20,37);fill-rule:nonzero;"/>
        </g>
        <g transform="matrix(18,0,0,18,48.1715,8.21069)">
            <path d="M0.496,-0.124C0.496,-0.103 0.5,-0.087 0.507,-0.077C0.514,-0.067 0.524,-0.06 0.539,-0.055L0.516,0.012C0.491,0.009 0.47,0.002 0.452,-0.01C0.433,-0.021 0.42,-0.039 0.411,-0.063C0.392,-0.038 0.367,-0.019 0.337,-0.006C0.308,0.006 0.275,0.013 0.241,0.013C0.186,0.013 0.143,-0.003 0.112,-0.033C0.08,-0.064 0.065,-0.105 0.065,-0.155C0.065,-0.211 0.087,-0.254 0.131,-0.284C0.174,-0.315 0.238,-0.33 0.32,-0.33L0.398,-0.33L0.398,-0.371C0.398,-0.408 0.387,-0.435 0.365,-0.45C0.343,-0.466 0.313,-0.474 0.273,-0.474C0.255,-0.474 0.234,-0.472 0.209,-0.467C0.185,-0.463 0.159,-0.456 0.131,-0.446L0.106,-0.518C0.139,-0.531 0.171,-0.54 0.202,-0.545C0.233,-0.551 0.262,-0.553 0.288,-0.553C0.358,-0.553 0.41,-0.537 0.444,-0.506C0.479,-0.474 0.496,-0.431 0.496,-0.376L0.496,-0.124ZM0.268,-0.061C0.293,-0.061 0.317,-0.068 0.341,-0.081C0.364,-0.094 0.383,-0.112 0.398,-0.135L0.398,-0.266L0.327,-0.266C0.27,-0.266 0.229,-0.256 0.205,-0.237C0.181,-0.217 0.169,-0.191 0.169,-0.157C0.169,-0.093 0.202,-0.061 0.268,-0.061Z" style="fill:rgb(0,20,37);fill-rule:nonzero;"/>
        </g>
        <g transform="matrix(18,0,0,18,59.2485,8.21069)">
            <path d="M0.558,-0.541L0.365,-0L0.25,-0L0.057,-0.541L0.162,-0.541L0.31,-0.086L0.457,-0.541L0.558,-0.541Z" style="fill:rgb(48,138,173);fill-rule:nonzero;"/>
        </g>
        <g transform="matrix(18,0,0,18,70.3254,8.21069)">
            <path d="M0.308,-0.799C0.328,-0.799 0.345,-0.793 0.357,-0.78C0.37,-0.767 0.376,-0.752 0.376,-0.734C0.376,-0.715 0.37,-0.699 0.357,-0.686C0.345,-0.674 0.328,-0.667 0.308,-0.667C0.288,-0.667 0.271,-0.674 0.259,-0.686C0.246,-0.699 0.24,-0.715 0.24,-0.734C0.24,-0.752 0.246,-0.767 0.259,-0.78C0.271,-0.793 0.288,-0.799 0.308,-0.799ZM0.381,-0.541L0.381,-0.075L0.531,-0.075L0.531,-0L0.118,-0L0.118,-0.075L0.283,-0.075L0.283,-0.466L0.123,-0.466L0.123,-0.541L0.381,-0.541Z" style="fill:rgb(48,138,173);fill-rule:nonzero;"/>
        </g>
        <g transform="matrix(18,0,0,18,81.4023,8.21069)">
            <path d="M0.219,-0.082L0.515,-0.082L0.504,-0L0.1,-0L0.1,-0.073L0.395,-0.458L0.124,-0.458L0.124,-0.541L0.512,-0.541L0.512,-0.467L0.219,-0.082Z" style="fill:rgb(48,138,173);fill-rule:nonzero;"/>
        </g>
        <g transform="matrix(18,0,0,18,48.1715,26.2107)">
            <path d="M0.291,-0.719C0.357,-0.719 0.41,-0.708 0.451,-0.684C0.491,-0.661 0.523,-0.629 0.545,-0.588C0.567,-0.548 0.582,-0.502 0.59,-0.452C0.598,-0.401 0.603,-0.348 0.603,-0.294C0.603,-0.208 0.599,-0.136 0.591,-0.078C0.582,-0.021 0.567,0.022 0.545,0.051C0.523,0.079 0.492,0.093 0.45,0.093C0.422,0.093 0.399,0.085 0.381,0.068C0.364,0.052 0.351,0.032 0.342,0.009C0.334,-0.013 0.329,-0.034 0.329,-0.052L0.325,-0.052C0.319,-0.036 0.309,-0.02 0.298,-0.005C0.286,0.01 0.271,0.023 0.252,0.033C0.234,0.042 0.211,0.047 0.185,0.047C0.147,0.047 0.116,0.037 0.093,0.017C0.07,-0.004 0.054,-0.032 0.043,-0.067C0.033,-0.102 0.028,-0.143 0.028,-0.188C0.028,-0.276 0.045,-0.342 0.081,-0.387C0.116,-0.432 0.166,-0.454 0.232,-0.454C0.256,-0.454 0.28,-0.451 0.303,-0.446C0.326,-0.44 0.352,-0.43 0.381,-0.414L0.381,-0.111C0.381,-0.076 0.384,-0.049 0.39,-0.03C0.396,-0.011 0.404,0.001 0.414,0.008C0.424,0.015 0.435,0.019 0.448,0.019C0.468,0.019 0.482,0.006 0.491,-0.021C0.499,-0.047 0.504,-0.084 0.506,-0.131C0.508,-0.178 0.509,-0.231 0.509,-0.291C0.509,-0.341 0.506,-0.387 0.5,-0.43C0.495,-0.472 0.484,-0.509 0.469,-0.541C0.454,-0.572 0.432,-0.596 0.403,-0.614C0.374,-0.632 0.337,-0.641 0.291,-0.641C0.257,-0.641 0.221,-0.634 0.182,-0.622C0.143,-0.609 0.103,-0.584 0.059,-0.546L0.008,-0.606C0.054,-0.646 0.101,-0.675 0.149,-0.693C0.197,-0.711 0.244,-0.719 0.291,-0.719ZM0.235,-0.384C0.191,-0.384 0.161,-0.368 0.145,-0.335C0.129,-0.303 0.122,-0.254 0.122,-0.188C0.122,-0.138 0.127,-0.098 0.138,-0.068C0.149,-0.039 0.169,-0.024 0.198,-0.024C0.22,-0.024 0.238,-0.029 0.251,-0.039C0.264,-0.049 0.274,-0.061 0.28,-0.075C0.287,-0.089 0.292,-0.101 0.296,-0.111L0.296,-0.37C0.277,-0.379 0.257,-0.384 0.235,-0.384Z" style="fill:rgb(0,20,37);fill-rule:nonzero;"/>
        </g>
        <g transform="matrix(18,0,0,18,59.2485,26.2107)">
            <path d="M0.537,-0.028C0.518,-0.015 0.495,-0.006 0.468,0.002C0.441,0.009 0.414,0.013 0.387,0.013C0.326,0.013 0.28,-0.003 0.248,-0.034C0.216,-0.066 0.201,-0.107 0.201,-0.157L0.201,-0.467L0.078,-0.467L0.078,-0.541L0.201,-0.541L0.201,-0.663L0.299,-0.674L0.299,-0.541L0.484,-0.541L0.472,-0.467L0.299,-0.467L0.299,-0.158C0.299,-0.128 0.307,-0.106 0.322,-0.091C0.337,-0.076 0.362,-0.068 0.398,-0.068C0.418,-0.068 0.436,-0.071 0.453,-0.075C0.47,-0.08 0.486,-0.086 0.5,-0.094L0.537,-0.028Z" style="fill:rgb(48,138,173);fill-rule:nonzero;"/>
        </g>
        <g transform="matrix(18,0,0,18,70.3254,26.2107)">
            <path d="M0.496,-0.124C0.496,-0.103 0.5,-0.087 0.507,-0.077C0.514,-0.067 0.524,-0.06 0.539,-0.055L0.516,0.012C0.491,0.009 0.47,0.002 0.452,-0.01C0.433,-0.021 0.42,-0.039 0.411,-0.063C0.392,-0.038 0.367,-0.019 0.337,-0.006C0.308,0.006 0.275,0.013 0.241,0.013C0.186,0.013 0.143,-0.003 0.112,-0.033C0.08,-0.064 0.065,-0.105 0.065,-0.155C0.065,-0.211 0.087,-0.254 0.131,-0.284C0.174,-0.315 0.238,-0.33 0.32,-0.33L0.398,-0.33L0.398,-0.371C0.398,-0.408 0.387,-0.435 0.365,-0.45C0.343,-0.466 0.313,-0.474 0.273,-0.474C0.255,-0.474 0.234,-0.472 0.209,-0.467C0.185,-0.463 0.159,-0.456 0.131,-0.446L0.106,-0.518C0.139,-0.531 0.171,-0.54 0.202,-0.545C0.233,-0.551 0.262,-0.553 0.288,-0.553C0.358,-0.553 0.41,-0.537 0.444,-0.506C0.479,-0.474 0.496,-0.431 0.496,-0.376L0.496,-0.124ZM0.268,-0.061C0.293,-0.061 0.317,-0.068 0.341,-0.081C0.364,-0.094 0.383,-0.112 0.398,-0.135L0.398,-0.266L0.327,-0.266C0.27,-0.266 0.229,-0.256 0.205,-0.237C0.181,-0.217 0.169,-0.191 0.169,-0.157C0.169,-0.093 0.202,-0.061 0.268,-0.061Z" style="fill:rgb(48,138,173);fill-rule:nonzero;"/>
        </g>
        <g transform="matrix(18,0,0,18,81.4023,26.2107)">
            <path d="M0.32,-0.758L0.32,-0.139C0.32,-0.114 0.328,-0.095 0.344,-0.084C0.36,-0.074 0.381,-0.068 0.406,-0.068C0.422,-0.068 0.438,-0.07 0.452,-0.073C0.467,-0.076 0.481,-0.081 0.495,-0.087L0.521,-0.016C0.505,-0.009 0.487,-0.002 0.464,0.004C0.442,0.01 0.416,0.013 0.388,0.013C0.337,0.013 0.296,-0.001 0.266,-0.03C0.236,-0.058 0.222,-0.097 0.222,-0.147L0.222,-0.683L0.057,-0.683L0.057,-0.758L0.32,-0.758Z" style="fill:rgb(0,20,37);fill-rule:nonzero;"/>
        </g>
        <g transform="matrix(18,0,0,18,92.4792,26.2107)">
            <path d="M0.196,-0.541L0.196,-0.16C0.196,-0.126 0.203,-0.101 0.217,-0.086C0.231,-0.072 0.252,-0.064 0.282,-0.064C0.309,-0.064 0.335,-0.072 0.36,-0.088C0.385,-0.104 0.405,-0.123 0.419,-0.146L0.419,-0.541L0.517,-0.541L0.517,-0L0.433,-0L0.426,-0.071C0.405,-0.044 0.379,-0.023 0.348,-0.009C0.317,0.006 0.286,0.013 0.254,0.013C0.202,0.013 0.162,-0.001 0.137,-0.03C0.111,-0.058 0.098,-0.097 0.098,-0.148L0.098,-0.541L0.196,-0.541Z" style="fill:rgb(0,20,37);fill-rule:nonzero;"/>
        </g>
        <g transform="matrix(18,0,0,18,103.556,26.2107)">
            <path d="M0.287,-0.066C0.326,-0.066 0.358,-0.073 0.38,-0.087C0.403,-0.102 0.414,-0.121 0.414,-0.146C0.414,-0.161 0.411,-0.175 0.405,-0.186C0.399,-0.197 0.387,-0.207 0.368,-0.217C0.35,-0.226 0.322,-0.236 0.284,-0.245C0.247,-0.254 0.215,-0.265 0.188,-0.277C0.161,-0.29 0.14,-0.306 0.125,-0.326C0.11,-0.345 0.103,-0.371 0.103,-0.403C0.103,-0.448 0.122,-0.485 0.16,-0.512C0.198,-0.54 0.249,-0.553 0.312,-0.553C0.357,-0.553 0.395,-0.547 0.428,-0.536C0.461,-0.524 0.489,-0.509 0.512,-0.492L0.47,-0.428C0.449,-0.442 0.427,-0.453 0.402,-0.462C0.377,-0.471 0.348,-0.476 0.314,-0.476C0.274,-0.476 0.246,-0.47 0.229,-0.458C0.212,-0.446 0.204,-0.43 0.204,-0.41C0.204,-0.395 0.208,-0.382 0.216,-0.373C0.225,-0.363 0.239,-0.354 0.259,-0.346C0.28,-0.338 0.308,-0.329 0.345,-0.319C0.38,-0.309 0.411,-0.298 0.437,-0.285C0.463,-0.272 0.484,-0.255 0.498,-0.234C0.513,-0.213 0.52,-0.185 0.52,-0.151C0.52,-0.113 0.509,-0.081 0.487,-0.057C0.464,-0.033 0.436,-0.015 0.4,-0.004C0.365,0.007 0.327,0.013 0.287,0.013C0.238,0.013 0.196,0.006 0.16,-0.009C0.125,-0.023 0.095,-0.041 0.071,-0.062L0.126,-0.124C0.146,-0.107 0.171,-0.093 0.198,-0.082C0.226,-0.071 0.255,-0.066 0.287,-0.066Z" style="fill:rgb(0,20,37);fill-rule:nonzero;"/>
        </g>
        <g transform="matrix(18,0,0,18,114.633,26.2107)">
            <path d="M0.196,-0.473C0.216,-0.498 0.238,-0.518 0.264,-0.532C0.29,-0.546 0.318,-0.553 0.348,-0.553C0.396,-0.553 0.435,-0.542 0.465,-0.518C0.494,-0.495 0.516,-0.462 0.53,-0.42C0.543,-0.378 0.55,-0.328 0.55,-0.271C0.55,-0.216 0.542,-0.167 0.526,-0.125C0.509,-0.082 0.485,-0.048 0.453,-0.024C0.422,0.001 0.382,0.013 0.336,0.013C0.274,0.013 0.226,-0.01 0.191,-0.055L0.185,-0L0.098,-0L0.098,-0.758L0.196,-0.77L0.196,-0.473ZM0.312,-0.065C0.354,-0.065 0.387,-0.081 0.41,-0.115C0.433,-0.149 0.445,-0.201 0.445,-0.271C0.445,-0.341 0.434,-0.393 0.414,-0.426C0.393,-0.459 0.363,-0.476 0.324,-0.476C0.296,-0.476 0.271,-0.467 0.25,-0.451C0.228,-0.434 0.21,-0.414 0.196,-0.393L0.196,-0.131C0.21,-0.111 0.227,-0.095 0.247,-0.083C0.266,-0.071 0.288,-0.065 0.312,-0.065Z" style="fill:rgb(0,20,37);fill-rule:nonzero;"/>
        </g>
        <g transform="matrix(18,0,0,18,125.71,26.2107)">
            <path d="M0.308,-0.799C0.328,-0.799 0.345,-0.793 0.357,-0.78C0.37,-0.767 0.376,-0.752 0.376,-0.734C0.376,-0.715 0.37,-0.699 0.357,-0.686C0.345,-0.674 0.328,-0.667 0.308,-0.667C0.288,-0.667 0.271,-0.674 0.259,-0.686C0.246,-0.699 0.24,-0.715 0.24,-0.734C0.24,-0.752 0.246,-0.767 0.259,-0.78C0.271,-0.793 0.288,-0.799 0.308,-0.799ZM0.381,-0.541L0.381,-0.075L0.531,-0.075L0.531,-0L0.118,-0L0.118,-0.075L0.283,-0.075L0.283,-0.466L0.123,-0.466L0.123,-0.541L0.381,-0.541Z" style="fill:rgb(0,20,37);fill-rule:nonzero;"/>
        </g>
        <g transform="matrix(18,0,0,18,136.787,26.2107)">
            <path d="M0.309,-0.553C0.386,-0.553 0.445,-0.528 0.485,-0.476C0.525,-0.425 0.545,-0.357 0.545,-0.271C0.545,-0.215 0.536,-0.166 0.518,-0.123C0.499,-0.08 0.473,-0.047 0.437,-0.023C0.402,0.001 0.359,0.013 0.308,0.013C0.23,0.013 0.172,-0.013 0.131,-0.064C0.091,-0.115 0.07,-0.184 0.07,-0.27C0.07,-0.326 0.079,-0.375 0.098,-0.418C0.116,-0.46 0.143,-0.494 0.178,-0.517C0.214,-0.541 0.257,-0.553 0.309,-0.553ZM0.309,-0.475C0.264,-0.475 0.231,-0.458 0.208,-0.425C0.186,-0.392 0.174,-0.34 0.174,-0.27C0.174,-0.2 0.185,-0.149 0.208,-0.116C0.23,-0.082 0.263,-0.066 0.308,-0.066C0.352,-0.066 0.385,-0.082 0.408,-0.116C0.43,-0.149 0.441,-0.201 0.441,-0.271C0.441,-0.341 0.43,-0.392 0.408,-0.425C0.385,-0.458 0.352,-0.475 0.309,-0.475Z" style="fill:rgb(0,20,37);fill-rule:nonzero;"/>
        </g>
    </g>
    <path d="M103.161,20L94.3,2.969L84.82,20L89.581,11.485L90.505,13.273L93.158,10.697L96.232,13.273L98.424,10.895L103.161,20Z" style="fill:rgb(48,138,173);stroke:black;stroke-width:1px;"/>
    <path d="M103.362,9.757L101.917,11.485L99.967,9.54L98.809,11.453L101.781,6.546L105.093,13.273L103.362,9.757Z" style="fill:rgb(48,138,173);stroke:black;stroke-width:1px;"/>
    <path d="M119.778,20L110.49,6.546L101.781,17.347L107.248,10.567L108.114,12.685L110.362,10.625L112.235,11.868L113.899,11.485L119.778,20Z" style="fill:rgb(48,138,173);stroke:black;stroke-width:1px;"/>
</svg>
